<svg xmlns="http://www.w3.org/2000/svg" viewBox="0 0 64 64">
  <title>NewAPI-Tool app icon</title>
  <rect width="64" height="64" rx="16" fill="url(#v3-bg)" />
  <path d="M60.221 45.19c-1.328 3.48-3.145 6.632-5.559 9.374C48.413 61.656 40.545 65.235 31.089 65.342a.097.097 0 0 1-.063-.026.108.108 0 0 1-.034-.06.108.108 0 0 1 .008-.066.097.097 0 0 1 .05-.05c4.958-2.048 9.08-5.187 12.157-9.567a26.672 26.672 0 0 0 4.275-9.667c.57-2.577.868-5.142.742-7.736-.126-2.677-.4-4.21-1.272-6.746-1.015-2.945-2.406-5.68-4.278-8.122-2.322-3.034-4.932-4.917-7.625-7.306-2.617-2.314-5.758-6.896-2.784-9.87 1.01-1.01 2.621-1.552 4.833-1.633 6.514-.237 13.177 4.3 17.347 9.077 1.972 2.262 3.628 4.728 4.903 7.461 1.278 2.738 2.14 5.58 2.572 8.536.35 2.406.307 3.79.241 6.22a28.448 28.448 0 0 1-1.919 9.421z" fill="url(#v3-a)" opacity=".95" transform="translate(.6 -1.2) scale(.98)" />
  <path d="M30.556 2.245a.108.108 0 0 1 .024.129.1.1 0 0 1-.047.047c-4.961 2.048-9.083 5.187-12.16 9.567a26.672 26.672 0 0 0-4.275 9.67c-.57 2.575-.868 5.142-.745 7.734.13 2.677.405 4.21 1.278 6.746 1.012 2.945 2.403 5.68 4.275 8.119 2.322 3.034 4.932 4.922 7.625 7.309 2.617 2.314 5.758 6.894 2.784 9.868-1.012 1.012-2.621 1.554-4.833 1.635-6.514.234-13.177-4.3-17.347-9.08-1.972-2.262-3.628-4.725-4.903-7.461a30.479 30.479 0 0 1-2.572-8.536c-.35-2.403-.307-3.786-.239-6.216.089-3.22.747-6.353 1.919-9.421C2.665 18.875 4.485 15.72 6.899 12.98 13.146 5.889 21.016 2.308 30.472 2.203c.024 0 .047.011.063.026z" fill="url(#v3-b)" opacity=".95" transform="translate(.6 -1.2) scale(.98)" />
  <path d="m23.7 32.02 6.46-1.862 1.894-6.522a.174.174 0 0 1 .334.005l1.525 5.943c2.04 1.15 4.338 1.985 6.894 2.514a.132.132 0 0 1 .074.197.132.132 0 0 1-.063.05l-6.268 1.864a.429.429 0 0 0-.287.284l-1.894 6.427a.089.089 0 0 1-.082.071.089.089 0 0 1-.089-.063l-1.875-6.3a.481.481 0 0 0-.337-.337l-6.287-1.854a.221.221 0 0 1-.116-.342.221.221 0 0 1 .113-.079z" fill="#fff" opacity=".95" />
  <circle cx="46" cy="46" r="12.8" fill="#fff" />
  <circle cx="46" cy="46" r="10.2" fill="url(#v3-badge)" />
  <path d="M47.3 39.7a1.15 1.15 0 0 0 0 1.63l1.78 1.78a1.15 1.15 0 0 0 1.63 0l3.44-3.44a6.86 6.86 0 0 1-9.08 9.08l-6.1 6.1a2.44 2.44 0 0 1-3.45-3.45l6.1-6.1a6.86 6.86 0 0 1 9.08-9.08z" fill="none" stroke="#fff" stroke-linecap="round" stroke-linejoin="round" stroke-width="2.8" />
  <defs>
    <linearGradient id="v3-bg" x1="4" x2="60" y1="4" y2="60" gradientUnits="userSpaceOnUse"><stop stop-color="#06111F" /><stop offset=".52" stop-color="#171744" /><stop offset="1" stop-color="#2C1241" /></linearGradient>
    <linearGradient id="v3-a" x1="46.99" x2="46.99" y1="4.448" y2="65.342" gradientUnits="userSpaceOnUse"><stop stop-color="#F85EAD" /><stop offset="1" stop-color="#FD75FD" /></linearGradient>
    <linearGradient id="v3-b" x1="15.614" x2="15.614" y1="2.203" y2="63.069" gradientUnits="userSpaceOnUse"><stop offset=".332" stop-color="#11F5EF" /><stop offset="1" stop-color="#C738FB" /></linearGradient>
    <linearGradient id="v3-badge" x1="35.8" x2="56.2" y1="35.8" y2="56.2" gradientUnits="userSpaceOnUse"><stop stop-color="#13EDE8" /><stop offset=".5" stop-color="#7C5CFF" /><stop offset="1" stop-color="#FF4EEB" /></linearGradient>
  </defs>
</svg>
