<svg xmlns="http://www.w3.org/2000/svg" viewBox="0 0 24 24">
  <title>NewAPI-Tool corner wrench</title>
  <path d="M23.078 16.34c-.506 1.323-1.198 2.519-2.117 3.562-2.378 2.696-5.374 4.057-8.971 4.098a.037.037 0 0 1-.024-.01.041.041 0 0 1-.013-.023.041.041 0 0 1 .003-.025.037.037 0 0 1 .019-.019c1.886-.779 3.454-1.973 4.625-3.639a10.148 10.148 0 0 0 1.626-3.677c.217-.98.33-1.955.282-2.942-.048-1.018-.152-1.601-.484-2.565-.386-1.12-.915-2.16-1.627-3.089-.883-1.154-1.876-1.87-2.9-2.779-.995-.88-2.19-2.623-1.059-3.754.384-.384.997-.59 1.838-.621 2.478-.09 5.011 1.636 6.597 3.453.75.86 1.38 1.798 1.865 2.837.486 1.041.814 2.122.978 3.246.133.915.117 1.441.092 2.365a10.82 10.82 0 0 1-.73 3.582z" fill="url(#v1-a)" />
  <path d="M11.86.01a.041.041 0 0 1 .009.049.038.038 0 0 1-.018.018C9.964.856 8.396 2.05 7.225 3.716a10.148 10.148 0 0 0-1.626 3.678c-.217.979-.33 1.955-.283 2.941.049 1.018.154 1.601.486 2.565.385 1.12.914 2.16 1.626 3.088.883 1.154 1.876 1.872 2.9 2.78.995.88 2.19 2.622 1.059 3.753-.385.385-.997.591-1.838.622-2.478.089-5.011-1.636-6.597-3.454-.75-.86-1.38-1.797-1.865-2.837a11.591 11.591 0 0 1-.978-3.246c-.133-.914-.117-1.44-.091-2.364.034-1.225.284-2.416.73-3.582.504-1.323 1.197-2.52 2.116-3.562C5.241 1.402 8.238.04 11.835 0c.009 0 .018.004.024.01z" fill="url(#v1-b)" />
  <path d="m8.721 11.903 2.455-.708.72-2.48a.066.066 0 0 1 .127.002l.58 2.26c.776.437 1.65.755 2.622.956a.05.05 0 0 1 .028.075.05.05 0 0 1-.024.019l-2.382.709a.163.163 0 0 0-.109.108l-.72 2.444a.034.034 0 0 1-.031.027.034.034 0 0 1-.034-.024l-.713-2.395a.183.183 0 0 0-.128-.128l-2.39-.705a.084.084 0 0 1-.044-.13.084.084 0 0 1 .043-.03z" fill="url(#v1-c)" />
  <g transform="translate(11.45 11.35) scale(.47) rotate(-12 12 12)" fill="none" stroke-linecap="round" stroke-linejoin="round">
    <path d="M14.7 6.3a1 1 0 0 0 0 1.4l1.6 1.6a1 1 0 0 0 1.4 0l3.77-3.77a6 6 0 0 1-7.94 7.94l-6.91 6.91a2.12 2.12 0 0 1-3-3l6.91-6.91a6 6 0 0 1 7.94-7.94z" stroke="#fff" stroke-opacity=".96" stroke-width="5.1" />
    <path d="M14.7 6.3a1 1 0 0 0 0 1.4l1.6 1.6a1 1 0 0 0 1.4 0l3.77-3.77a6 6 0 0 1-7.94 7.94l-6.91 6.91a2.12 2.12 0 0 1-3-3l6.91-6.91a6 6 0 0 1 7.94-7.94z" stroke="url(#v1-w)" stroke-width="2.7" />
  </g>
  <defs>
    <linearGradient id="v1-a" x1="17.889" x2="17.889" y1=".854" y2="24" gradientUnits="userSpaceOnUse"><stop stop-color="#F85EAD" /><stop offset="1" stop-color="#FD75FD" /></linearGradient>
    <linearGradient id="v1-b" x1="5.936" x2="5.936" y1="0" y2="23.146" gradientUnits="userSpaceOnUse"><stop offset=".332" stop-color="#11F5EF" /><stop offset="1" stop-color="#C738FB" /></linearGradient>
    <linearGradient id="v1-c" x1="11.961" x2="11.961" y1="8.666" y2="15.315" gradientUnits="userSpaceOnUse"><stop offset=".332" stop-color="#11F5EF" /><stop offset="1" stop-color="#C738FB" /></linearGradient>
    <linearGradient id="v1-w" x1="4" x2="22" y1="4" y2="22" gradientUnits="userSpaceOnUse"><stop stop-color="#11F5EF" /><stop offset=".55" stop-color="#C738FB" /><stop offset="1" stop-color="#FD75FD" /></linearGradient>
  </defs>
</svg>
